Motion_mu01
version=1
nRows=16
nColumns=43
inDegrees=yes
endheader
time	pelvis_tilt	pelvis_list	pelvis_rotation	pelvis_tx	pelvis_ty	pelvis_tz	hip_flexion_r	hip_adduction_r	hip_rotation_r	knee_angle_r	ankle_angle_r	subtalar_angle_r	mtp_angle_r	hip_flexion_l	hip_adduction_l	hip_rotation_l	knee_angle_l	ankle_angle_l	subtalar_angle_l	mtp_angle_l	lumbar_extension	lumbar_bending	lumbar_rotation	neck_flexion	neck_lateral_bending	neck_rotation	arm_flex_r	arm_add_r	arm_rot_r	elbow_flex_r	pro_sup_r	wrist_flex_r	wrist_dev_r	hand_finger_flex_r	arm_flex_l	arm_add_l	arm_rot_l	elbow_flex_l	pro_sup_l	wrist_flex_l	wrist_dev_l	hand_finger_flex_l
      3.37000000	     -1.43216694	     11.83019527	    -89.37487556	     -0.03438236	      1.85140600	      0.96942541	     14.93628335	     -1.20285975	    -10.96024312	    -12.01928445	    -20.86116219	     10.04490693	     -0.25581398	     17.08343567	     -5.85154121	    -18.56175192	    -12.16703978	    -23.96916170	     15.79462205	      5.96057265	    -34.59816369	      2.83503376	     -5.21970220	    -15.13870887	     -6.01163834	      0.14282488	   -219.77814504	   -150.90641181	   -190.39144942	    118.12205666	    161.48188626	    -51.54185806	    -24.99999983	     76.48387962	    -47.02502789	    -11.32548054	    -24.95319652	    113.09425999	    171.54502573	    -70.86449765	    -24.99999983	     76.22987135
      3.37250000	     -1.44430385	     11.76309465	    -89.40235457	     -0.03451864	      1.84951003	      0.96853712	     14.90359440	     -1.18451836	    -10.99551954	    -12.02658586	    -20.88136694	     10.04555753	     -0.26327788	     17.02354458	     -5.87046866	    -18.55109177	    -12.14214577	    -24.01132420	     15.78267055	      5.95303698	    -34.52364965	      2.83791571	     -5.22021552	    -15.29189599	     -6.02584937	      0.14017410	   -220.00070259	   -150.96553674	   -190.62795624	    118.51322911	    161.49818785	    -51.53369877	    -24.99999983	     76.48858179	    -47.27251280	    -11.18975522	    -25.15759628	    113.49878845	    171.49698685	    -70.92359635	    -24.99999983	     76.26026153
      3.37500000	     -1.46422775	     11.69258414	    -89.42698350	     -0.03464010	      1.84764676	      0.96757702	     14.86852753	     -1.16726527	    -11.03473007	    -12.03312834	    -20.89308413	     10.04744938	     -0.27039168	     16.96388673	     -5.88741635	    -18.53635757	    -12.11961708	    -24.04937008	     15.76744447	      5.94646151	    -34.46531556	      2.84675231	     -5.20927711	    -15.43961858	     -6.04129650	      0.13704454	   -220.21342920	   -151.04270693	   -190.87276093	    118.92927444	    161.52396741	    -51.50065770	    -24.99999983	     76.50199950	    -47.49971525	    -11.04854480	    -25.36381690	    113.93301407	    171.45368457	    -70.96420892	    -24.99999983	     76.29946342
      3.37750000	     -1.48497851	     11.61462920	    -89.45059939	     -0.03479030	      1.84574827	      0.96665317	     14.82475266	     -1.14644959	    -11.07507372	    -12.04376454	    -20.90200892	     10.05018622	     -0.27813551	     16.89869618	     -5.90992749	    -18.51602814	    -12.10713342	    -24.08593750	     15.74871880	      5.94042745	    -34.40879987	      2.85312621	     -5.20239821	    -15.57826088	     -6.05459704	      0.13403267	   -220.44018608	   -151.12800105	   -191.12739458	    119.34603401	    161.55824870	    -51.44402021	    -24.99999983	     76.52350352	    -47.73572798	    -10.90870021	    -25.57489833	    114.35562595	    171.41666897	    -70.98385509	    -24.99999983	     76.34771783
      3.38000000	     -1.50597062	     11.53294831	    -89.46858010	     -0.03495958	      1.84385765	      0.96568251	     14.77895760	     -1.12386401	    -11.11647059	    -12.04988646	    -20.90753899	     10.05296488	     -0.28637281	     16.83489929	     -5.93422502	    -18.49410576	    -12.09750797	    -24.11820483	     15.72769382	      5.93517617	    -34.35918130	      2.85536320	     -5.19762811	    -15.71743301	     -6.06986813	      0.13335552	   -220.65673141	   -151.22823370	   -191.38311257	    119.77060160	    161.59913926	    -51.36953054	    -24.99999983	     76.55007215	    -47.95254467	    -10.76735174	    -25.78278087	    114.78774583	    171.38397393	    -70.98897625	    -24.99999983	     76.40093223
      3.38250000	     -1.52548057	     11.44631024	    -89.48299315	     -0.03514169	      1.84193130	      0.96473166	     14.72747231	     -1.10214264	    -11.15761094	    -12.05563540	    -20.91411258	     10.05432589	     -0.29563154	     16.76837708	     -5.96001452	    -18.46995427	    -12.09430004	    -24.15046505	     15.70517651	      5.92995885	    -34.30765482	      2.85351124	     -5.19523204	    -15.85827870	     -6.08281532	      0.13473323	   -220.87947047	   -151.33777651	   -191.64519278	    120.19560486	    161.64475838	    -51.28072203	    -24.99999983	     76.58028599	    -48.17439439	    -10.62273494	    -25.99658120	    115.21417971	    171.35450507	    -70.98248076	    -24.99999983	     76.45889998
      3.38500000	     -1.64672442	     10.86470930	    -89.37068186	     -0.03485195	      1.84078308	      0.96407615	     14.03801948	     -1.01912006	    -11.50242122	    -11.92962712	    -20.83181060	     10.20403161	     -0.43190641	     16.18053852	     -6.02825583	    -18.19375831	    -12.09589151	    -24.07017509	     15.54488627	      5.95669611	    -34.82023970	      3.05670398	     -4.98843835	    -15.76443322	     -6.12287107	     -0.11785156	   -221.40576330	   -151.62785094	   -192.60138953	    121.22938772	    162.91339643	    -48.76563168	    -24.99999983	     76.99275182	    -48.25580887	    -10.50781094	    -26.22036158	    116.07406798	    171.70357673	    -69.14727421	    -24.99999983	     77.46394389
      3.38750000	     -1.65587200	     10.80868716	    -89.37773813	     -0.03507748	      1.83879960	      0.96311987	     14.01741222	     -1.01223928	    -11.53206788	    -11.93394207	    -20.87712316	     10.20631676	     -0.44726063	     16.13517348	     -6.04064376	    -18.21352862	    -12.06747698	    -24.11882535	     15.54414082	      5.94912921	    -34.71761324	      3.04340297	     -5.01711497	    -15.95885102	     -6.12391180	     -0.10584206	   -221.58251473	   -151.74668187	   -192.79447637	    121.59684491	    162.90663860	    -48.80545318	    -24.99999983	     76.95873060	    -48.48101180	    -10.38516993	    -26.46364483	    116.45665742	    171.61932289	    -69.25503299	    -24.99999983	     77.47836677
      3.39000000	     -1.66078600	     10.74018553	    -89.40404288	     -0.03525090	      1.83682707	      0.96210977	     13.98828622	     -1.00944420	    -11.56632468	    -11.93896893	    -20.90935390	     10.19769701	     -0.46189405	     16.08958721	     -6.05221221	    -18.21639868	    -12.05998276	    -24.17576497	     15.54520826	      5.94100437	    -34.63847898	      3.02225058	     -5.03332020	    -16.14415864	     -6.11910250	     -0.09072153	   -221.77033721	   -151.85820772	   -193.03233298	    121.97595559	    162.91015373	    -48.80774500	    -24.99999983	     76.93145026	    -48.69659905	    -10.20933512	    -26.68383979	    116.87550184	    171.54621697	    -69.33750476	    -24.99999983	     77.50627715
      3.39250000	     -1.66803295	     10.66085946	    -89.42447459	     -0.03540656	      1.83483433	      0.96111351	     13.95629929	     -1.00600451	    -11.59073702	    -11.94676041	    -20.93726820	     10.18518599	     -0.47560228	     16.02745865	     -6.06641942	    -18.21284170	    -12.05752867	    -24.22664198	     15.53932606	      5.93400334	    -34.56157820	      3.00212801	     -5.04349571	    -16.31547293	     -6.11201688	     -0.07514802	   -221.95642248	   -151.97172063	   -193.27225543	    122.36788307	    162.92110158	    -48.77584286	    -24.99999983	     76.91256485	    -48.89482685	    -10.03830844	    -26.91073828	    117.28844108	    171.48757817	    -69.38938506	    -24.99999983	     77.54663503
      3.39500000	     -1.67777369	     10.58863273	    -89.44874477	     -0.03559059	      1.83290545	      0.96008138	     13.92126510	     -1.00363382	    -11.60390451	    -11.94956174	    -20.96534471	     10.17362259	     -0.48639595	     15.97794658	     -6.07568946	    -18.20844238	    -12.04357289	    -24.26389879	     15.52836910	      5.92864341	    -34.48724006	      2.99342637	     -5.05355836	    -16.49185714	     -6.11340813	     -0.06012184	   -222.10097132	   -152.10442866	   -193.46310011	    122.78659502	    162.92347707	    -48.75542036	    -24.99999983	     76.90045718	    -49.08200514	     -9.88535839	    -27.11431710	    117.66187613	    171.44138529	    -69.43451279	    -24.99999983	     77.58189084
      3.39750000	     -1.68309456	     10.51030951	    -89.47252962	     -0.03584189	      1.83090068	      0.95902873	     13.89399304	     -0.99026187	    -11.61322008	    -11.95035366	    -20.99710568	     10.16038057	     -0.49670044	     15.91759066	     -6.09485043	    -18.19924452	    -12.03380091	    -24.30150236	     15.51350319	      5.92331980	    -34.41306505	      2.96798996	     -5.08143665	    -16.68041190	     -6.12448527	     -0.04397670	   -222.26801535	   -152.22150277	   -193.69305536	    123.19199841	    162.92168064	    -48.72884560	    -24.99999983	     76.89454746	    -49.27195268	     -9.72093862	    -27.33057208	    118.06175922	    171.39453306	    -69.48163380	    -24.99999983	     77.61809485
      3.40000000	     -1.69094689	     10.42074914	    -89.50246649	     -0.03591965	      1.82888573	      0.95800613	     13.85024553	     -0.99492908	    -11.61759862	    -11.96219511	    -21.03172952	     10.14090389	     -0.50746170	     15.84900301	     -6.09918811	    -18.18327642	    -12.03238132	    -24.34095149	     15.49435235	      5.91827713	    -34.33945807	      2.96327784	     -5.08007335	    -16.87188566	     -6.13349874	     -0.02781382	   -222.45668118	   -152.31913511	   -193.94294113	    123.60381092	    162.92543407	    -48.66845203	    -24.99999983	     76.89456429	    -49.46365615	     -9.54055514	    -27.57737080	    118.49839139	    171.34767526	    -69.51656748	    -24.99999983	     77.66562391
      3.40250000	     -1.72975343	      9.91187773	    -89.56816064	     -0.03609123	      1.82755291	      0.95710515	     13.35096598	     -0.93549110	    -11.50885660	    -11.97729346	    -21.00938657	      9.96390179	     -0.56863919	     15.30112574	     -6.12590694	    -18.09619715	    -11.98643548	    -24.30400392	     15.22627564	      5.95542488	    -34.78450054	      2.95738735	     -4.94335371	    -16.70348836	     -6.04903280	     -0.06256219	   -222.73085962	   -152.52570032	   -194.59387959	    124.45472672	    163.45130887	    -46.51740125	    -24.99999983	     76.96117494	    -49.63574705	     -9.34284279	    -27.92888810	    119.29194370	    171.65713341	    -68.26345331	    -24.99999983	     78.51239966
      3.40500000	     -1.72525248	      9.85005698	    -89.59976768	     -0.03621309	      1.82555307	      0.95602642	     13.32563429	     -0.94591066	    -11.52313494	    -11.94618495	    -21.05681580	      9.96530178	     -0.58023825	     15.25922378	     -6.12076858	    -18.10160455	    -11.97418018	    -24.34507161	     15.23633157	      5.95074374	    -34.67450817	      2.94578699	     -4.97866878	    -16.95999255	     -6.09615714	     -0.04727921	   -222.85064093	   -152.59061143	   -194.73027032	    124.86314149	    163.42702910	    -46.55335254	    -24.99999983	     76.92873164	    -49.75463273	     -9.19577970	    -28.11452616	    119.62956210	    171.58410159	    -68.35140180	    -24.99999983	     78.52512253
      3.40750000	     -1.72320482	      9.77262802	    -89.62516961	     -0.03635000	      1.82347185	      0.95502870	     13.28861233	     -0.95640891	    -11.52787591	    -11.94521658	    -21.11122797	      9.96496907	     -0.59250086	     15.20236839	     -6.11756986	    -18.10065601	    -11.96684832	    -24.38641786	     15.23760370	      5.94603511	    -34.56883085	      2.93346237	     -5.01069534	    -17.20735574	     -6.14005495	     -0.03276866	   -222.99808687	   -152.68188355	   -194.95376507	    125.22734482	    163.40164652	    -46.55923009	    -24.99999983	     76.90339435	    -49.93741439	     -9.02040358	    -28.34875839	    120.01216102	    171.50655281	    -68.44334472	    -24.99999983	     78.54690534
